TITLE ""
FILE "LR_black_phrase_E_C07.mp3" MP3
  TRACK 01 AUDIO
    TITLE "LR_black_phrase_E_C07_001"
    INDEX 01 00:00:00
  TRACK 02 AUDIO
    TITLE "LR_black_phrase_E_C07_002"
    INDEX 01 00:00:14
  TRACK 03 AUDIO
    TITLE "LR_black_phrase_E_C07_003"
    INDEX 01 00:01:53
  TRACK 04 AUDIO
    TITLE "LR_black_phrase_E_C07_004"
    INDEX 01 00:02:09
  TRACK 05 AUDIO
    TITLE "LR_black_phrase_E_C07_005"
    INDEX 01 00:04:16
  TRACK 06 AUDIO
    TITLE "LR_black_phrase_E_C07_006"
    INDEX 01 00:04:73
  TRACK 07 AUDIO
    TITLE "LR_black_phrase_E_C07_007"
    INDEX 01 00:07:06
  TRACK 08 AUDIO
    TITLE "LR_black_phrase_E_C07_008"
    INDEX 01 00:08:12
  TRACK 09 AUDIO
    TITLE "LR_black_phrase_E_C07_009"
    INDEX 01 00:09:31
  TRACK 10 AUDIO
    TITLE "LR_black_phrase_E_C07_010"
    INDEX 01 00:09:60
  TRACK 11 AUDIO
    TITLE "LR_black_phrase_E_C07_011"
    INDEX 01 00:11:51
  TRACK 12 AUDIO
    TITLE "LR_black_phrase_E_C07_012"
    INDEX 01 00:12:27
  TRACK 13 AUDIO
    TITLE "LR_black_phrase_E_C07_013"
    INDEX 01 00:14:18
  TRACK 14 AUDIO
    TITLE "LR_black_phrase_E_C07_014"
    INDEX 01 00:15:16
  TRACK 15 AUDIO
    TITLE "LR_black_phrase_E_C07_015"
    INDEX 01 00:16:31
  TRACK 16 AUDIO
    TITLE "LR_black_phrase_E_C07_016"
    INDEX 01 00:16:54
  TRACK 17 AUDIO
    TITLE "LR_black_phrase_E_C07_017"
    INDEX 01 00:20:31
  TRACK 18 AUDIO
    TITLE "LR_black_phrase_E_C07_018"
    INDEX 01 00:21:03
  TRACK 19 AUDIO
    TITLE "LR_black_phrase_E_C07_019"
    INDEX 01 00:24:52
  TRACK 20 AUDIO
    TITLE "LR_black_phrase_E_C07_020"
    INDEX 01 00:25:53
  TRACK 21 AUDIO
    TITLE "LR_black_phrase_E_C07_021"
    INDEX 01 00:26:70
  TRACK 22 AUDIO
    TITLE "LR_black_phrase_E_C07_022"
    INDEX 01 00:27:15
  TRACK 23 AUDIO
    TITLE "LR_black_phrase_E_C07_023"
    INDEX 01 00:28:69
  TRACK 24 AUDIO
    TITLE "LR_black_phrase_E_C07_024"
    INDEX 01 00:29:45
  TRACK 25 AUDIO
    TITLE "LR_black_phrase_E_C07_025"
    INDEX 01 00:31:28
  TRACK 26 AUDIO
    TITLE "LR_black_phrase_E_C07_026"
    INDEX 01 00:32:30
  TRACK 27 AUDIO
    TITLE "LR_black_phrase_E_C07_027"
    INDEX 01 00:33:53
  TRACK 28 AUDIO
    TITLE "LR_black_phrase_E_C07_028"
    INDEX 01 00:34:07
  TRACK 29 AUDIO
    TITLE "LR_black_phrase_E_C07_029"
    INDEX 01 00:37:11
  TRACK 30 AUDIO
    TITLE "LR_black_phrase_E_C07_030"
    INDEX 01 00:37:62
  TRACK 31 AUDIO
    TITLE "LR_black_phrase_E_C07_031"
    INDEX 01 00:40:65
  TRACK 32 AUDIO
    TITLE "LR_black_phrase_E_C07_032"
    INDEX 01 00:41:68
  TRACK 33 AUDIO
    TITLE "LR_black_phrase_E_C07_033"
    INDEX 01 00:43:16
  TRACK 34 AUDIO
    TITLE "LR_black_phrase_E_C07_034"
    INDEX 01 00:43:45
  TRACK 35 AUDIO
    TITLE "LR_black_phrase_E_C07_035"
    INDEX 01 00:45:27
  TRACK 36 AUDIO
    TITLE "LR_black_phrase_E_C07_036"
    INDEX 01 00:46:06
  TRACK 37 AUDIO
    TITLE "LR_black_phrase_E_C07_037"
    INDEX 01 00:47:61
  TRACK 38 AUDIO
    TITLE "LR_black_phrase_E_C07_038"
    INDEX 01 00:48:60
  TRACK 39 AUDIO
    TITLE "LR_black_phrase_E_C07_039"
    INDEX 01 00:50:06
  TRACK 40 AUDIO
    TITLE "LR_black_phrase_E_C07_040"
    INDEX 01 00:50:38
  TRACK 41 AUDIO
    TITLE "LR_black_phrase_E_C07_041"
    INDEX 01 00:52:70
  TRACK 42 AUDIO
    TITLE "LR_black_phrase_E_C07_042"
    INDEX 01 00:53:44
  TRACK 43 AUDIO
    TITLE "LR_black_phrase_E_C07_043"
    INDEX 01 00:56:03
  TRACK 44 AUDIO
    TITLE "LR_black_phrase_E_C07_044"
    INDEX 01 00:56:72
  TRACK 45 AUDIO
    TITLE "LR_black_phrase_E_C07_045"
    INDEX 01 00:58:00
  TRACK 46 AUDIO
    TITLE "LR_black_phrase_E_C07_046"
    INDEX 01 00:58:25
  TRACK 47 AUDIO
    TITLE "LR_black_phrase_E_C07_047"
    INDEX 01 01:00:07
  TRACK 48 AUDIO
    TITLE "LR_black_phrase_E_C07_048"
    INDEX 01 01:00:61
  TRACK 49 AUDIO
    TITLE "LR_black_phrase_E_C07_049"
    INDEX 01 01:02:45
  TRACK 50 AUDIO
    TITLE "LR_black_phrase_E_C07_050"
    INDEX 01 01:03:50
  TRACK 51 AUDIO
    TITLE "LR_black_phrase_E_C07_051"
    INDEX 01 01:05:14
  TRACK 52 AUDIO
    TITLE "LR_black_phrase_E_C07_052"
    INDEX 01 01:05:43
  TRACK 53 AUDIO
    TITLE "LR_black_phrase_E_C07_053"
    INDEX 01 01:07:69
  TRACK 54 AUDIO
    TITLE "LR_black_phrase_E_C07_054"
    INDEX 01 01:08:47
  TRACK 55 AUDIO
    TITLE "LR_black_phrase_E_C07_055"
    INDEX 01 01:10:74
  TRACK 56 AUDIO
    TITLE "LR_black_phrase_E_C07_056"
    INDEX 01 01:12:02
  TRACK 57 AUDIO
    TITLE "LR_black_phrase_E_C07_057"
    INDEX 01 01:13:25
  TRACK 58 AUDIO
    TITLE "LR_black_phrase_E_C07_058"
    INDEX 01 01:13:54
  TRACK 59 AUDIO
    TITLE "LR_black_phrase_E_C07_059"
    INDEX 01 01:15:53
  TRACK 60 AUDIO
    TITLE "LR_black_phrase_E_C07_060"
    INDEX 01 01:16:35
  TRACK 61 AUDIO
    TITLE "LR_black_phrase_E_C07_061"
    INDEX 01 01:18:34
  TRACK 62 AUDIO
    TITLE "LR_black_phrase_E_C07_062"
    INDEX 01 01:19:37
  TRACK 63 AUDIO
    TITLE "LR_black_phrase_E_C07_063"
    INDEX 01 01:20:43
  TRACK 64 AUDIO
    TITLE "LR_black_phrase_E_C07_064"
    INDEX 01 01:20:58
  TRACK 65 AUDIO
    TITLE "LR_black_phrase_E_C07_065"
    INDEX 01 01:23:66
  TRACK 66 AUDIO
    TITLE "LR_black_phrase_E_C07_066"
    INDEX 01 01:24:31
  TRACK 67 AUDIO
    TITLE "LR_black_phrase_E_C07_067"
    INDEX 01 01:27:39
  TRACK 68 AUDIO
    TITLE "LR_black_phrase_E_C07_068"
    INDEX 01 01:28:32
  TRACK 69 AUDIO
    TITLE "LR_black_phrase_E_C07_069"
    INDEX 01 01:29:53
  TRACK 70 AUDIO
    TITLE "LR_black_phrase_E_C07_070"
    INDEX 01 01:30:00
  TRACK 71 AUDIO
    TITLE "LR_black_phrase_E_C07_071"
    INDEX 01 01:32:42
  TRACK 72 AUDIO
    TITLE "LR_black_phrase_E_C07_072"
    INDEX 01 01:33:28
  TRACK 73 AUDIO
    TITLE "LR_black_phrase_E_C07_073"
    INDEX 01 01:36:04
  TRACK 74 AUDIO
    TITLE "LR_black_phrase_E_C07_074"
    INDEX 01 01:37:10
  TRACK 75 AUDIO
    TITLE "LR_black_phrase_E_C07_075"
    INDEX 01 01:38:31
  TRACK 76 AUDIO
    TITLE "LR_black_phrase_E_C07_076"
    INDEX 01 01:38:60
  TRACK 77 AUDIO
    TITLE "LR_black_phrase_E_C07_077"
    INDEX 01 01:40:55
  TRACK 78 AUDIO
    TITLE "LR_black_phrase_E_C07_078"
    INDEX 01 01:41:35
  TRACK 79 AUDIO
    TITLE "LR_black_phrase_E_C07_079"
    INDEX 01 01:43:32
  TRACK 80 AUDIO
    TITLE "LR_black_phrase_E_C07_080"
    INDEX 01 01:44:35
  TRACK 81 AUDIO
    TITLE "LR_black_phrase_E_C07_081"
    INDEX 01 01:45:46
  TRACK 82 AUDIO
    TITLE "LR_black_phrase_E_C07_082"
    INDEX 01 01:45:74
  TRACK 83 AUDIO
    TITLE "LR_black_phrase_E_C07_083"
    INDEX 01 01:48:08
  TRACK 84 AUDIO
    TITLE "LR_black_phrase_E_C07_084"
    INDEX 01 01:48:62
  TRACK 85 AUDIO
    TITLE "LR_black_phrase_E_C07_085"
    INDEX 01 01:50:71
  TRACK 86 AUDIO
    TITLE "LR_black_phrase_E_C07_086"
    INDEX 01 01:51:71
  TRACK 87 AUDIO
    TITLE "LR_black_phrase_E_C07_087"
    INDEX 01 01:53:05
  TRACK 88 AUDIO
    TITLE "LR_black_phrase_E_C07_088"
    INDEX 01 01:53:28
  TRACK 89 AUDIO
    TITLE "LR_black_phrase_E_C07_089"
    INDEX 01 01:55:25
  TRACK 90 AUDIO
    TITLE "LR_black_phrase_E_C07_090"
    INDEX 01 01:55:72
  TRACK 91 AUDIO
    TITLE "LR_black_phrase_E_C07_091"
    INDEX 01 01:57:73
  TRACK 92 AUDIO
    TITLE "LR_black_phrase_E_C07_092"
    INDEX 01 01:58:71
  TRACK 93 AUDIO
    TITLE "LR_black_phrase_E_C07_093"
    INDEX 01 02:00:36
  TRACK 94 AUDIO
    TITLE "LR_black_phrase_E_C07_094"
    INDEX 01 02:00:58
  TRACK 95 AUDIO
    TITLE "LR_black_phrase_E_C07_095"
    INDEX 01 02:03:40
  TRACK 96 AUDIO
    TITLE "LR_black_phrase_E_C07_096"
    INDEX 01 02:04:12
  TRACK 97 AUDIO
    TITLE "LR_black_phrase_E_C07_097"
    INDEX 01 02:06:70
  TRACK 98 AUDIO
    TITLE "LR_black_phrase_E_C07_098"
    INDEX 01 02:08:01
  TRACK 99 AUDIO
    TITLE "LR_black_phrase_E_C07_099"
    INDEX 01 02:09:00
  TRACK 100 AUDIO
    TITLE "LR_black_phrase_E_C07_100"
    INDEX 01 02:09:29
  TRACK 101 AUDIO
    TITLE "LR_black_phrase_E_C07_101"
    INDEX 01 02:11:01
  TRACK 102 AUDIO
    TITLE "LR_black_phrase_E_C07_102"
    INDEX 01 02:11:56
  TRACK 103 AUDIO
    TITLE "LR_black_phrase_E_C07_103"
    INDEX 01 02:13:27
  TRACK 104 AUDIO
    TITLE "LR_black_phrase_E_C07_104"
    INDEX 01 02:14:31
  TRACK 105 AUDIO
    TITLE "LR_black_phrase_E_C07_105"
    INDEX 01 02:15:61
  TRACK 106 AUDIO
    TITLE "LR_black_phrase_E_C07_106"
    INDEX 01 02:16:16
  TRACK 107 AUDIO
    TITLE "LR_black_phrase_E_C07_107"
    INDEX 01 02:18:11
  TRACK 108 AUDIO
    TITLE "LR_black_phrase_E_C07_108"
    INDEX 01 02:18:66
  TRACK 109 AUDIO
    TITLE "LR_black_phrase_E_C07_109"
    INDEX 01 02:20:61
  TRACK 110 AUDIO
    TITLE "LR_black_phrase_E_C07_110"
    INDEX 01 02:21:62
  TRACK 111 AUDIO
    TITLE "LR_black_phrase_E_C07_111"
    INDEX 01 02:23:04
  TRACK 112 AUDIO
    TITLE "LR_black_phrase_E_C07_112"
    INDEX 01 02:23:24
  TRACK 113 AUDIO
    TITLE "LR_black_phrase_E_C07_113"
    INDEX 01 02:25:03
  TRACK 114 AUDIO
    TITLE "LR_black_phrase_E_C07_114"
    INDEX 01 02:25:50
  TRACK 115 AUDIO
    TITLE "LR_black_phrase_E_C07_115"
    INDEX 01 02:27:29
  TRACK 116 AUDIO
    TITLE "LR_black_phrase_E_C07_116"
    INDEX 01 02:28:25
  TRACK 117 AUDIO
    TITLE "LR_black_phrase_E_C07_117"
    INDEX 01 02:29:40
  TRACK 118 AUDIO
    TITLE "LR_black_phrase_E_C07_118"
    INDEX 01 02:29:59
  TRACK 119 AUDIO
    TITLE "LR_black_phrase_E_C07_119"
    INDEX 01 02:31:54
  TRACK 120 AUDIO
    TITLE "LR_black_phrase_E_C07_120"
    INDEX 01 02:32:32
  TRACK 121 AUDIO
    TITLE "LR_black_phrase_E_C07_121"
    INDEX 01 02:34:31
